<mxfile host="65bd71144e">
    <diagram name="Page-1" id="7-7hPz_wN_cqvQ6TGRM2">
        <mxGraphModel dx="1002" dy="563" grid="1" gridSize="10" guides="1" tooltips="1" connect="1" arrows="1" fold="1" page="1" pageScale="1" pageWidth="827" pageHeight="1169" math="0" shadow="0">
            <root>
                <mxCell id="0"/>
                <mxCell id="1" parent="0"/>
                <mxCell id="Dcc-kKfdeNaQNgZKtsUt-16" value="" style="rounded=1;whiteSpace=wrap;html=1;absoluteArcSize=1;arcSize=14;strokeWidth=2;movable=0;resizable=0;rotatable=0;deletable=0;editable=0;locked=1;connectable=0;" parent="1" vertex="1">
                    <mxGeometry x="170" y="120" width="750" height="710" as="geometry"/>
                </mxCell>
                <mxCell id="Dcc-kKfdeNaQNgZKtsUt-2" value="Employee" style="shape=umlActor;verticalLabelPosition=bottom;verticalAlign=top;html=1;outlineConnect=0;movable=0;resizable=0;rotatable=0;deletable=0;editable=0;locked=1;connectable=0;" parent="1" vertex="1">
                    <mxGeometry x="60" y="440" width="60" height="110" as="geometry"/>
                </mxCell>
                <mxCell id="Dcc-kKfdeNaQNgZKtsUt-3" value="Hybrid Haven" style="text;strokeColor=none;align=center;fillColor=none;html=1;verticalAlign=middle;whiteSpace=wrap;rounded=0;fontSize=16;shadow=0;fontStyle=1;movable=0;resizable=0;rotatable=0;deletable=0;editable=0;locked=1;connectable=0;" parent="1" vertex="1">
                    <mxGeometry x="490" y="132" width="110" height="30" as="geometry"/>
                </mxCell>
                <mxCell id="Dcc-kKfdeNaQNgZKtsUt-4" value="Social LogIn" style="ellipse;whiteSpace=wrap;html=1;movable=0;resizable=0;rotatable=0;deletable=0;editable=0;locked=1;connectable=0;" parent="1" vertex="1">
                    <mxGeometry x="231" y="240" width="140" height="50" as="geometry"/>
                </mxCell>
                <mxCell id="Dcc-kKfdeNaQNgZKtsUt-10" value="" style="html=1;labelBackgroundColor=#ffffff;startArrow=none;startFill=0;startSize=6;endArrow=classic;endFill=1;endSize=6;jettySize=auto;orthogonalLoop=1;strokeWidth=1;dashed=1;fontSize=14;rounded=0;entryX=0;entryY=0.5;entryDx=0;entryDy=0;movable=0;resizable=0;rotatable=0;deletable=0;editable=0;locked=1;connectable=0;" parent="1" target="Dcc-kKfdeNaQNgZKtsUt-11" edge="1">
                    <mxGeometry width="60" height="60" relative="1" as="geometry">
                        <mxPoint x="372" y="265" as="sourcePoint"/>
                        <mxPoint x="432" y="205" as="targetPoint"/>
                    </mxGeometry>
                </mxCell>
                <mxCell id="Dcc-kKfdeNaQNgZKtsUt-18" value="&amp;lt;&amp;lt;Include&amp;gt;&amp;gt;" style="edgeLabel;html=1;align=center;verticalAlign=middle;resizable=0;points=[];rotation=338;movable=0;rotatable=0;deletable=0;editable=0;locked=1;connectable=0;" parent="Dcc-kKfdeNaQNgZKtsUt-10" vertex="1" connectable="0">
                    <mxGeometry x="0.054" y="1" relative="1" as="geometry">
                        <mxPoint x="-3" y="2" as="offset"/>
                    </mxGeometry>
                </mxCell>
                <mxCell id="Dcc-kKfdeNaQNgZKtsUt-11" value="Verify With Social Provider" style="ellipse;whiteSpace=wrap;html=1;movable=0;resizable=0;rotatable=0;deletable=0;editable=0;locked=1;connectable=0;" parent="1" vertex="1">
                    <mxGeometry x="463.49" y="195" width="160" height="60" as="geometry"/>
                </mxCell>
                <mxCell id="Dcc-kKfdeNaQNgZKtsUt-19" value="" style="html=1;labelBackgroundColor=#ffffff;startArrow=none;startFill=0;startSize=6;endArrow=classic;endFill=1;endSize=6;jettySize=auto;orthogonalLoop=1;strokeWidth=1;dashed=1;fontSize=14;rounded=0;entryX=0;entryY=0.5;entryDx=0;entryDy=0;movable=0;resizable=0;rotatable=0;deletable=0;editable=0;locked=1;connectable=0;" parent="1" target="Dcc-kKfdeNaQNgZKtsUt-21" edge="1">
                    <mxGeometry width="60" height="60" relative="1" as="geometry">
                        <mxPoint x="372" y="265" as="sourcePoint"/>
                        <mxPoint x="462" y="300" as="targetPoint"/>
                    </mxGeometry>
                </mxCell>
                <mxCell id="Dcc-kKfdeNaQNgZKtsUt-20" value="&amp;lt;&amp;lt;Extend&amp;gt;&amp;gt;" style="edgeLabel;html=1;align=center;verticalAlign=middle;resizable=0;points=[];rotation=19;movable=0;rotatable=0;deletable=0;editable=0;locked=1;connectable=0;" parent="Dcc-kKfdeNaQNgZKtsUt-19" vertex="1" connectable="0">
                    <mxGeometry x="0.054" y="1" relative="1" as="geometry">
                        <mxPoint x="-4" as="offset"/>
                    </mxGeometry>
                </mxCell>
                <mxCell id="Dcc-kKfdeNaQNgZKtsUt-21" value="Unable To Verify Social Account" style="ellipse;whiteSpace=wrap;html=1;movable=0;resizable=0;rotatable=0;deletable=0;editable=0;locked=1;connectable=0;" parent="1" vertex="1">
                    <mxGeometry x="463.49" y="265" width="160" height="60" as="geometry"/>
                </mxCell>
                <mxCell id="Dcc-kKfdeNaQNgZKtsUt-24" value="Book A Desk" style="ellipse;whiteSpace=wrap;html=1;movable=0;resizable=0;rotatable=0;deletable=0;editable=0;locked=1;connectable=0;" parent="1" vertex="1">
                    <mxGeometry x="231" y="390" width="130" height="50" as="geometry"/>
                </mxCell>
                <mxCell id="Dcc-kKfdeNaQNgZKtsUt-9" value="" style="endArrow=none;html=1;rounded=0;entryX=0;entryY=0.5;entryDx=0;entryDy=0;exitX=1;exitY=0.3333333333333333;exitDx=0;exitDy=0;exitPerimeter=0;movable=0;resizable=0;rotatable=0;deletable=0;editable=0;locked=1;connectable=0;" parent="1" source="Dcc-kKfdeNaQNgZKtsUt-2" target="Dcc-kKfdeNaQNgZKtsUt-4" edge="1">
                    <mxGeometry width="50" height="50" relative="1" as="geometry">
                        <mxPoint x="400" y="460" as="sourcePoint"/>
                        <mxPoint x="450" y="410" as="targetPoint"/>
                    </mxGeometry>
                </mxCell>
                <mxCell id="Dcc-kKfdeNaQNgZKtsUt-27" value="" style="endArrow=none;html=1;rounded=0;entryX=0;entryY=0.5;entryDx=0;entryDy=0;exitX=1;exitY=0.3333333333333333;exitDx=0;exitDy=0;exitPerimeter=0;movable=0;resizable=0;rotatable=0;deletable=0;editable=0;locked=1;connectable=0;" parent="1" source="Dcc-kKfdeNaQNgZKtsUt-2" target="Dcc-kKfdeNaQNgZKtsUt-24" edge="1">
                    <mxGeometry width="50" height="50" relative="1" as="geometry">
                        <mxPoint x="120" y="478" as="sourcePoint"/>
                        <mxPoint x="280" y="433" as="targetPoint"/>
                    </mxGeometry>
                </mxCell>
                <mxCell id="Dcc-kKfdeNaQNgZKtsUt-29" value="Find Neighbour Hood" style="ellipse;whiteSpace=wrap;html=1;movable=0;resizable=0;rotatable=0;deletable=0;editable=0;locked=1;connectable=0;" parent="1" vertex="1">
                    <mxGeometry x="463.49" y="390" width="157.51" height="50" as="geometry"/>
                </mxCell>
                <mxCell id="Dcc-kKfdeNaQNgZKtsUt-30" value="" style="html=1;labelBackgroundColor=#ffffff;startArrow=none;startFill=0;startSize=6;endArrow=classic;endFill=1;endSize=6;jettySize=auto;orthogonalLoop=1;strokeWidth=1;dashed=1;fontSize=14;rounded=0;exitX=1;exitY=0.5;exitDx=0;exitDy=0;entryX=0;entryY=0.5;entryDx=0;entryDy=0;movable=0;resizable=0;rotatable=0;deletable=0;editable=0;locked=1;connectable=0;" parent="1" source="Dcc-kKfdeNaQNgZKtsUt-24" target="Dcc-kKfdeNaQNgZKtsUt-29" edge="1">
                    <mxGeometry width="60" height="60" relative="1" as="geometry">
                        <mxPoint x="382" y="343" as="sourcePoint"/>
                        <mxPoint x="472" y="378" as="targetPoint"/>
                    </mxGeometry>
                </mxCell>
                <mxCell id="Dcc-kKfdeNaQNgZKtsUt-32" value="&amp;lt;&amp;lt;Include&amp;gt;&amp;gt;" style="edgeLabel;html=1;align=center;verticalAlign=middle;resizable=0;points=[];rotation=0;movable=0;rotatable=0;deletable=0;editable=0;locked=1;connectable=0;" parent="1" vertex="1" connectable="0">
                    <mxGeometry x="409.4970851847057" y="414.9958837211192" as="geometry"/>
                </mxCell>
                <mxCell id="Dcc-kKfdeNaQNgZKtsUt-33" value="Check Availabilty" style="ellipse;whiteSpace=wrap;html=1;movable=0;resizable=0;rotatable=0;deletable=0;editable=0;locked=1;connectable=0;" parent="1" vertex="1">
                    <mxGeometry x="714" y="390" width="157.51" height="50" as="geometry"/>
                </mxCell>
                <mxCell id="Dcc-kKfdeNaQNgZKtsUt-34" value="" style="html=1;labelBackgroundColor=#ffffff;startArrow=none;startFill=0;startSize=6;endArrow=classic;endFill=1;endSize=6;jettySize=auto;orthogonalLoop=1;strokeWidth=1;dashed=1;fontSize=14;rounded=0;exitX=1;exitY=0.5;exitDx=0;exitDy=0;entryX=0;entryY=0.5;entryDx=0;entryDy=0;movable=0;resizable=0;rotatable=0;deletable=0;editable=0;locked=1;connectable=0;" parent="1" source="Dcc-kKfdeNaQNgZKtsUt-29" target="Dcc-kKfdeNaQNgZKtsUt-33" edge="1">
                    <mxGeometry width="60" height="60" relative="1" as="geometry">
                        <mxPoint x="363.49" y="474" as="sourcePoint"/>
                        <mxPoint x="474.49" y="437" as="targetPoint"/>
                    </mxGeometry>
                </mxCell>
                <mxCell id="_VF1hWQ4oc1ye9RgmtgQ-9" value="Organize Event" style="ellipse;whiteSpace=wrap;html=1;movable=0;resizable=0;rotatable=0;deletable=0;editable=0;locked=1;connectable=0;" parent="1" vertex="1">
                    <mxGeometry x="231" y="493" width="130" height="50" as="geometry"/>
                </mxCell>
                <mxCell id="_VF1hWQ4oc1ye9RgmtgQ-18" value="&amp;lt;&amp;lt;Extend&amp;gt;&amp;gt;" style="edgeLabel;html=1;align=center;verticalAlign=middle;resizable=0;points=[];rotation=0;movable=0;rotatable=0;deletable=0;editable=0;locked=1;connectable=0;" parent="1" vertex="1" connectable="0">
                    <mxGeometry x="663.0015070086075" y="415" as="geometry"/>
                </mxCell>
                <mxCell id="_VF1hWQ4oc1ye9RgmtgQ-20" value="" style="endArrow=none;html=1;rounded=0;entryX=0;entryY=0.5;entryDx=0;entryDy=0;exitX=1;exitY=0.3333333333333333;exitDx=0;exitDy=0;exitPerimeter=0;movable=0;resizable=0;rotatable=0;deletable=0;editable=0;locked=1;connectable=0;" parent="1" source="Dcc-kKfdeNaQNgZKtsUt-2" target="_VF1hWQ4oc1ye9RgmtgQ-9" edge="1">
                    <mxGeometry width="50" height="50" relative="1" as="geometry">
                        <mxPoint x="130" y="487" as="sourcePoint"/>
                        <mxPoint x="241" y="425" as="targetPoint"/>
                    </mxGeometry>
                </mxCell>
                <mxCell id="_VF1hWQ4oc1ye9RgmtgQ-21" value="Participate In Event" style="ellipse;whiteSpace=wrap;html=1;movable=0;resizable=0;rotatable=0;deletable=0;editable=0;locked=1;connectable=0;" parent="1" vertex="1">
                    <mxGeometry x="231" y="590" width="130" height="50" as="geometry"/>
                </mxCell>
                <mxCell id="_VF1hWQ4oc1ye9RgmtgQ-22" value="" style="endArrow=none;html=1;rounded=0;entryX=0;entryY=0.5;entryDx=0;entryDy=0;exitX=1;exitY=0.3333333333333333;exitDx=0;exitDy=0;exitPerimeter=0;movable=0;resizable=0;rotatable=0;deletable=0;editable=0;locked=1;connectable=0;" parent="1" source="Dcc-kKfdeNaQNgZKtsUt-2" target="_VF1hWQ4oc1ye9RgmtgQ-21" edge="1">
                    <mxGeometry width="50" height="50" relative="1" as="geometry">
                        <mxPoint x="130" y="487" as="sourcePoint"/>
                        <mxPoint x="241" y="528" as="targetPoint"/>
                    </mxGeometry>
                </mxCell>
                <mxCell id="_VF1hWQ4oc1ye9RgmtgQ-23" value="Event Expired Or Not" style="ellipse;whiteSpace=wrap;html=1;movable=0;resizable=0;rotatable=0;deletable=0;editable=0;locked=1;connectable=0;" parent="1" vertex="1">
                    <mxGeometry x="714" y="588" width="157.51" height="50" as="geometry"/>
                </mxCell>
                <mxCell id="_VF1hWQ4oc1ye9RgmtgQ-24" value="" style="html=1;labelBackgroundColor=#ffffff;startArrow=none;startFill=0;startSize=6;endArrow=classic;endFill=1;endSize=6;jettySize=auto;orthogonalLoop=1;strokeWidth=1;dashed=1;fontSize=14;rounded=0;exitX=1;exitY=0.5;exitDx=0;exitDy=0;entryX=0;entryY=0.5;entryDx=0;entryDy=0;movable=0;resizable=0;rotatable=0;deletable=0;editable=0;locked=1;connectable=0;" parent="1" source="_VF1hWQ4oc1ye9RgmtgQ-21" target="_VF1hWQ4oc1ye9RgmtgQ-28" edge="1">
                    <mxGeometry width="60" height="60" relative="1" as="geometry">
                        <mxPoint x="361" y="617" as="sourcePoint"/>
                        <mxPoint x="390" y="690" as="targetPoint"/>
                    </mxGeometry>
                </mxCell>
                <mxCell id="_VF1hWQ4oc1ye9RgmtgQ-27" value="" style="endArrow=block;dashed=1;endFill=0;endSize=12;html=1;rounded=0;entryX=0.5;entryY=1;entryDx=0;entryDy=0;movable=0;resizable=0;rotatable=0;deletable=0;editable=0;locked=1;connectable=0;" parent="1" target="_VF1hWQ4oc1ye9RgmtgQ-9" edge="1">
                    <mxGeometry width="160" relative="1" as="geometry">
                        <mxPoint x="296" y="590" as="sourcePoint"/>
                        <mxPoint x="600" y="490" as="targetPoint"/>
                    </mxGeometry>
                </mxCell>
                <mxCell id="_VF1hWQ4oc1ye9RgmtgQ-28" value="Check Event Availability" style="ellipse;whiteSpace=wrap;html=1;movable=0;resizable=0;rotatable=0;deletable=0;editable=0;locked=1;connectable=0;" parent="1" vertex="1">
                    <mxGeometry x="463.49" y="590" width="157.51" height="50" as="geometry"/>
                </mxCell>
                <mxCell id="_VF1hWQ4oc1ye9RgmtgQ-29" value="&amp;lt;&amp;lt;Include&amp;gt;&amp;gt;" style="edgeLabel;html=1;align=center;verticalAlign=middle;resizable=0;points=[];rotation=0;movable=0;rotatable=0;deletable=0;editable=0;locked=1;connectable=0;" parent="1" vertex="1" connectable="0">
                    <mxGeometry x="409.4970851847057" y="614.9958837211192" as="geometry"/>
                </mxCell>
                <mxCell id="_VF1hWQ4oc1ye9RgmtgQ-30" value="" style="html=1;labelBackgroundColor=#ffffff;startArrow=none;startFill=0;startSize=6;endArrow=classic;endFill=1;endSize=6;jettySize=auto;orthogonalLoop=1;strokeWidth=1;dashed=1;fontSize=14;rounded=0;exitX=1;exitY=0.5;exitDx=0;exitDy=0;entryX=0;entryY=0.5;entryDx=0;entryDy=0;movable=0;resizable=0;rotatable=0;deletable=0;editable=0;locked=1;connectable=0;" parent="1" source="_VF1hWQ4oc1ye9RgmtgQ-28" target="_VF1hWQ4oc1ye9RgmtgQ-23" edge="1">
                    <mxGeometry width="60" height="60" relative="1" as="geometry">
                        <mxPoint x="623.49" y="615" as="sourcePoint"/>
                        <mxPoint x="702.49" y="615" as="targetPoint"/>
                    </mxGeometry>
                </mxCell>
                <mxCell id="_VF1hWQ4oc1ye9RgmtgQ-31" value="&amp;lt;&amp;lt;Extend&amp;gt;&amp;gt;" style="edgeLabel;html=1;align=center;verticalAlign=middle;resizable=0;points=[];rotation=0;movable=0;rotatable=0;deletable=0;editable=0;locked=1;connectable=0;" parent="1" vertex="1" connectable="0">
                    <mxGeometry x="663.4915070086075" y="614" as="geometry"/>
                </mxCell>
                <mxCell id="_VF1hWQ4oc1ye9RgmtgQ-32" value="Set Vacation" style="ellipse;whiteSpace=wrap;html=1;movable=0;resizable=0;rotatable=0;deletable=0;editable=0;locked=1;connectable=0;" parent="1" vertex="1">
                    <mxGeometry x="231" y="725" width="140" height="50" as="geometry"/>
                </mxCell>
                <mxCell id="_VF1hWQ4oc1ye9RgmtgQ-33" value="" style="html=1;labelBackgroundColor=#ffffff;startArrow=none;startFill=0;startSize=6;endArrow=classic;endFill=1;endSize=6;jettySize=auto;orthogonalLoop=1;strokeWidth=1;dashed=1;fontSize=14;rounded=0;entryX=0;entryY=0.5;entryDx=0;entryDy=0;movable=0;resizable=0;rotatable=0;deletable=0;editable=0;locked=1;connectable=0;" parent="1" target="_VF1hWQ4oc1ye9RgmtgQ-35" edge="1">
                    <mxGeometry width="60" height="60" relative="1" as="geometry">
                        <mxPoint x="372" y="750" as="sourcePoint"/>
                        <mxPoint x="432" y="690" as="targetPoint"/>
                    </mxGeometry>
                </mxCell>
                <mxCell id="_VF1hWQ4oc1ye9RgmtgQ-34" value="&amp;lt;&amp;lt;Include&amp;gt;&amp;gt;" style="edgeLabel;html=1;align=center;verticalAlign=middle;resizable=0;points=[];rotation=0;movable=0;rotatable=0;deletable=0;editable=0;locked=1;connectable=0;" parent="_VF1hWQ4oc1ye9RgmtgQ-33" vertex="1" connectable="0">
                    <mxGeometry x="0.054" y="1" relative="1" as="geometry">
                        <mxPoint x="-6" y="2" as="offset"/>
                    </mxGeometry>
                </mxCell>
                <mxCell id="_VF1hWQ4oc1ye9RgmtgQ-35" value="Lookup For&amp;nbsp;&lt;div&gt;Weekend&lt;span style=&quot;background-color: initial;&quot;&gt;&amp;nbsp;/ Booking&lt;/span&gt;&lt;/div&gt;" style="ellipse;whiteSpace=wrap;html=1;movable=0;resizable=0;rotatable=0;deletable=0;editable=0;locked=1;connectable=0;" parent="1" vertex="1">
                    <mxGeometry x="464.07" y="725" width="160" height="50" as="geometry"/>
                </mxCell>
                <mxCell id="_VF1hWQ4oc1ye9RgmtgQ-39" value="" style="endArrow=none;html=1;rounded=0;entryX=0;entryY=0.5;entryDx=0;entryDy=0;exitX=1;exitY=0.3333333333333333;exitDx=0;exitDy=0;exitPerimeter=0;movable=0;resizable=0;rotatable=0;deletable=0;editable=0;locked=1;connectable=0;" parent="1" source="Dcc-kKfdeNaQNgZKtsUt-2" target="_VF1hWQ4oc1ye9RgmtgQ-32" edge="1">
                    <mxGeometry width="50" height="50" relative="1" as="geometry">
                        <mxPoint x="130" y="487" as="sourcePoint"/>
                        <mxPoint x="241" y="625" as="targetPoint"/>
                    </mxGeometry>
                </mxCell>
                <mxCell id="_VF1hWQ4oc1ye9RgmtgQ-42" value="Cancel Booking" style="ellipse;whiteSpace=wrap;html=1;movable=0;resizable=0;rotatable=0;deletable=0;editable=0;locked=1;connectable=0;" parent="1" vertex="1">
                    <mxGeometry x="717.07" y="725" width="160" height="50" as="geometry"/>
                </mxCell>
                <mxCell id="_VF1hWQ4oc1ye9RgmtgQ-46" value="" style="html=1;labelBackgroundColor=#ffffff;startArrow=none;startFill=0;startSize=6;endArrow=classic;endFill=1;endSize=6;jettySize=auto;orthogonalLoop=1;strokeWidth=1;dashed=1;fontSize=14;rounded=0;entryX=0;entryY=0.5;entryDx=0;entryDy=0;exitX=1;exitY=0.5;exitDx=0;exitDy=0;movable=0;resizable=0;rotatable=0;deletable=0;editable=0;locked=1;connectable=0;" parent="1" source="_VF1hWQ4oc1ye9RgmtgQ-35" target="_VF1hWQ4oc1ye9RgmtgQ-42" edge="1">
                    <mxGeometry width="60" height="60" relative="1" as="geometry">
                        <mxPoint x="618.5600000000001" y="795" as="sourcePoint"/>
                        <mxPoint x="710.0500000000001" y="755" as="targetPoint"/>
                    </mxGeometry>
                </mxCell>
                <mxCell id="_VF1hWQ4oc1ye9RgmtgQ-47" value="&amp;lt;&amp;lt;Include&amp;gt;&amp;gt;" style="edgeLabel;html=1;align=center;verticalAlign=middle;resizable=0;points=[];rotation=0;movable=0;rotatable=0;deletable=0;editable=0;locked=1;connectable=0;" parent="_VF1hWQ4oc1ye9RgmtgQ-46" vertex="1" connectable="0">
                    <mxGeometry x="0.054" y="1" relative="1" as="geometry">
                        <mxPoint x="-3" as="offset"/>
                    </mxGeometry>
                </mxCell>
            </root>
        </mxGraphModel>
    </diagram>
</mxfile>